<svg width="80" height="80" viewBox="0 0 80 80" fill="none" xmlns="http://www.w3.org/2000/svg">
<rect width="80" height="80" rx="20" fill="#41BA74"/>
<path d="M32.7685 51V47.6761L40.5348 40.4851C41.1953 39.8459 41.7493 39.2706 42.1967 38.7592C42.6513 38.2479 42.9957 37.7472 43.2301 37.2571C43.4645 36.7599 43.5817 36.2237 43.5817 35.6484C43.5817 35.0092 43.4361 34.4588 43.1449 33.9972C42.8537 33.5284 42.456 33.1697 41.9517 32.9212C41.4474 32.6655 40.8757 32.5376 40.2365 32.5376C39.5689 32.5376 38.9865 32.6726 38.4893 32.9425C37.9922 33.2124 37.6087 33.5994 37.3388 34.1037C37.0689 34.608 36.9339 35.2081 36.9339 35.9041H32.5554C32.5554 34.4766 32.8786 33.2372 33.5249 32.1861C34.1712 31.1349 35.0767 30.3217 36.2415 29.7464C37.4063 29.1712 38.7486 28.8835 40.2685 28.8835C41.831 28.8835 43.1911 29.1605 44.3487 29.7145C45.5135 30.2614 46.419 31.0213 47.0653 31.9943C47.7116 32.9673 48.0348 34.0824 48.0348 35.3395C48.0348 36.1634 47.8714 36.9766 47.5447 37.7791C47.2251 38.5817 46.6534 39.473 45.8295 40.4531C45.0057 41.4261 43.8445 42.5945 42.3459 43.9581L39.1605 47.0795V47.2287H48.3224V51H32.7685Z" fill="white"/>
</svg>
