<svg width="80" height="80" viewBox="0 0 80 80" fill="none" xmlns="http://www.w3.org/2000/svg">
<rect width="80" height="80" rx="20" fill="#DB5757"/>
<path d="M40.8331 51.2983C39.2422 51.2983 37.8253 51.0249 36.5824 50.478C35.3466 49.924 34.37 49.1641 33.6527 48.1982C32.9425 47.2251 32.5767 46.103 32.5554 44.8317H37.2003C37.2287 45.3643 37.4027 45.8331 37.7223 46.2379C38.049 46.6357 38.4822 46.9446 39.022 47.1648C39.5618 47.3849 40.169 47.495 40.8438 47.495C41.5469 47.495 42.1683 47.3707 42.7081 47.1222C43.2479 46.8736 43.6705 46.5291 43.9759 46.0888C44.2813 45.6484 44.4339 45.1406 44.4339 44.5653C44.4339 43.983 44.2706 43.468 43.9439 43.0206C43.6243 42.5661 43.1626 42.2109 42.5589 41.9553C41.9624 41.6996 41.2521 41.5717 40.4283 41.5717H38.3935V38.1839H40.4283C41.1243 38.1839 41.7386 38.0632 42.2713 37.8217C42.8111 37.5803 43.2301 37.2464 43.5284 36.8203C43.8267 36.3871 43.9759 35.8828 43.9759 35.3075C43.9759 34.7607 43.8445 34.2812 43.5817 33.8693C43.326 33.4503 42.9638 33.1236 42.495 32.8892C42.0334 32.6548 41.4936 32.5376 40.8757 32.5376C40.2507 32.5376 39.679 32.6513 39.1605 32.8786C38.642 33.0987 38.2266 33.4148 37.9141 33.8267C37.6016 34.2386 37.4347 34.7216 37.4134 35.2756H32.9922C33.0135 34.0185 33.3722 32.9105 34.0682 31.9517C34.7642 30.9929 35.7017 30.2436 36.8807 29.7038C38.0668 29.157 39.4055 28.8835 40.897 28.8835C42.4027 28.8835 43.7202 29.157 44.8494 29.7038C45.9787 30.2507 46.8558 30.9893 47.4808 31.9197C48.1129 32.843 48.4254 33.88 48.4183 35.0305C48.4254 36.2521 48.0455 37.2713 47.2784 38.0881C46.5185 38.9048 45.5277 39.4233 44.3061 39.6435V39.8139C45.9112 40.0199 47.1328 40.5774 47.9709 41.4865C48.8161 42.3885 49.2351 43.5178 49.228 44.8743C49.2351 46.1172 48.8764 47.2216 48.152 48.1875C47.4347 49.1534 46.4439 49.9134 45.1797 50.4673C43.9155 51.0213 42.4666 51.2983 40.8331 51.2983Z" fill="white"/>
</svg>
